<svg width="1920" height="1200" viewBox="0 0 1920 1200" xmlns="http://www.w3.org/2000/svg">
  <defs>
    <linearGradient id="bg" x1="0" y1="0" x2="1" y2="1">
      <stop offset="0%" stop-color="#f8fbff"/>
      <stop offset="100%" stop-color="#fcfdff"/>
    </linearGradient>
    <linearGradient id="header" x1="0" y1="0" x2="1" y2="0">
      <stop offset="0%" stop-color="#eaf4ff"/>
      <stop offset="100%" stop-color="#eef9f3"/>
    </linearGradient>
    <linearGradient id="blue" x1="0" y1="0" x2="1" y2="1">
      <stop offset="0%" stop-color="#3f8cff"/>
      <stop offset="100%" stop-color="#73aafc"/>
    </linearGradient>
    <linearGradient id="green" x1="0" y1="0" x2="1" y2="1">
      <stop offset="0%" stop-color="#2fb56e"/>
      <stop offset="100%" stop-color="#7bd9a6"/>
    </linearGradient>
    <linearGradient id="purple" x1="0" y1="0" x2="1" y2="1">
      <stop offset="0%" stop-color="#8b68ff"/>
      <stop offset="100%" stop-color="#bea8ff"/>
    </linearGradient>
    <linearGradient id="orange" x1="0" y1="0" x2="1" y2="1">
      <stop offset="0%" stop-color="#ff9c3f"/>
      <stop offset="100%" stop-color="#ffcb7d"/>
    </linearGradient>
    <linearGradient id="pink" x1="0" y1="0" x2="1" y2="1">
      <stop offset="0%" stop-color="#ee6b97"/>
      <stop offset="100%" stop-color="#f7b1c8"/>
    </linearGradient>
    <filter id="shadow" x="-20%" y="-20%" width="140%" height="160%">
      <feDropShadow dx="0" dy="10" stdDeviation="16" flood-color="#9bb0c8" flood-opacity="0.18"/>
    </filter>
    <marker id="arrow" markerWidth="14" markerHeight="14" refX="11" refY="7" orient="auto">
      <path d="M0,0 L14,7 L0,14 Z" fill="#6b87ab"/>
    </marker>
    <style>
      .title { font: 700 40px 'Microsoft YaHei', 'PingFang SC', Arial, sans-serif; fill: #1f2d3d; }
      .subtitle { font: 400 18px 'Microsoft YaHei', 'PingFang SC', Arial, sans-serif; fill: #607086; }
      .sectionTitle { font: 700 24px 'Microsoft YaHei', 'PingFang SC', Arial, sans-serif; fill: #203248; }
      .cardTitle { font: 700 18px 'Microsoft YaHei', 'PingFang SC', Arial, sans-serif; fill: #21364c; }
      .body { font: 400 15px 'Microsoft YaHei', 'PingFang SC', Arial, sans-serif; fill: #5e7085; }
      .small { font: 400 13px 'Microsoft YaHei', 'PingFang SC', Arial, sans-serif; fill: #718195; }
      .white { font: 700 16px 'Microsoft YaHei', 'PingFang SC', Arial, sans-serif; fill: #ffffff; }
      .label { font: 700 14px 'Microsoft YaHei', 'PingFang SC', Arial, sans-serif; fill: #4c6582; }
      .mini { font: 700 13px 'Microsoft YaHei', 'PingFang SC', Arial, sans-serif; fill: #2c4663; }
    </style>
  </defs>

  <rect x="0" y="0" width="1920" height="1200" fill="url(#bg)"/>
  <circle cx="1700" cy="120" r="180" fill="#eef6ff"/>
  <circle cx="1790" cy="920" r="210" fill="#f3f8ff"/>
  <circle cx="140" cy="1110" r="180" fill="#eef9f3"/>

  <rect x="48" y="34" width="1824" height="122" rx="28" fill="url(#header)" stroke="#d9e8f4" stroke-width="2" filter="url(#shadow)"/>
  <text x="86" y="92" class="title">ProTangram 关键组件与调用关系图</text>
  <text x="86" y="128" class="subtitle">基于当前工程实际代码整理：入口层、路由布局层、状态与桥接层、核心业务页面、后端与数据落盘层，以及 ExperimentCard / AnalysisTemplate / AnalysisProject / AnalysisReport 主业务对象关系</text>

  <rect x="60" y="190" width="360" height="300" rx="26" fill="#ffffff" stroke="#dce8f3" stroke-width="2" filter="url(#shadow)"/>
  <rect x="60" y="190" width="360" height="56" rx="26" fill="#edf5ff"/>
  <text x="94" y="226" class="sectionTitle">启动与应用入口</text>
  <rect x="94" y="276" width="292" height="52" rx="16" fill="#f8fbff" stroke="#cddff1"/>
  <text x="118" y="308" class="cardTitle">main.tsx</text>
  <text x="240" y="308" class="body">创建根节点并渲染 App</text>
  <line x1="240" y1="328" x2="240" y2="356" stroke="#6b87ab" stroke-width="3" marker-end="url(#arrow)"/>
  <rect x="94" y="364" width="292" height="92" rx="16" fill="#f8fbff" stroke="#cddff1"/>
  <text x="118" y="396" class="cardTitle">App.tsx</text>
  <text x="118" y="423" class="body">- 挂载 ThemeProvider / RouterProvider</text>
  <text x="118" y="447" class="body">- 启动时执行 syncAllFromBackend()</text>
  <rect x="256" y="382" width="110" height="30" rx="15" fill="url(#blue)"/>
  <text x="279" y="402" class="white">应用根协调器</text>

  <rect x="460" y="190" width="360" height="300" rx="26" fill="#ffffff" stroke="#dce8f3" stroke-width="2" filter="url(#shadow)"/>
  <rect x="460" y="190" width="360" height="56" rx="26" fill="#eefaf1"/>
  <text x="494" y="226" class="sectionTitle">路由与布局层</text>
  <rect x="494" y="276" width="292" height="52" rx="16" fill="#f8fbff" stroke="#cddff1"/>
  <text x="518" y="308" class="cardTitle">router/index.tsx</text>
  <text x="670" y="308" class="body">定义所有业务路由</text>
  <line x1="640" y1="328" x2="640" y2="356" stroke="#6b87ab" stroke-width="3" marker-end="url(#arrow)"/>
  <rect x="494" y="364" width="292" height="92" rx="16" fill="#f8fbff" stroke="#cddff1"/>
  <text x="518" y="396" class="cardTitle">MainLayout.tsx</text>
  <text x="518" y="423" class="body">- 侧边栏、页签栏、用户区</text>
  <text x="518" y="447" class="body">- 通过 Outlet 装载业务页面</text>
  <rect x="694" y="382" width="72" height="30" rx="15" fill="url(#green)"/>
  <text x="715" y="402" class="white">Outlet</text>
  <rect x="510" y="466" width="112" height="22" rx="11" fill="#f0f5ff" stroke="#c9daf7"/>
  <text x="530" y="481" class="mini">ThemeToggle</text>

  <rect x="860" y="190" width="460" height="300" rx="26" fill="#ffffff" stroke="#dce8f3" stroke-width="2" filter="url(#shadow)"/>
  <rect x="860" y="190" width="460" height="56" rx="26" fill="#f5f1ff"/>
  <text x="894" y="226" class="sectionTitle">状态中心与桥接层</text>
  <rect x="894" y="276" width="178" height="82" rx="16" fill="#f8fbff" stroke="#cddff1"/>
  <text x="916" y="306" class="cardTitle">useAppStore.ts</text>
  <text x="916" y="331" class="body">统一保存 experiments / templates</text>
  <text x="916" y="352" class="body">projects / reports 等业务状态</text>
  <rect x="1108" y="276" width="178" height="82" rx="16" fill="#f8fbff" stroke="#cddff1"/>
  <text x="1130" y="306" class="cardTitle">useThemeStore.ts</text>
  <text x="1130" y="331" class="body">管理 light / dark 主题</text>
  <text x="1130" y="352" class="body">并持久化到 localStorage</text>
  <rect x="894" y="382" width="178" height="82" rx="16" fill="#f8fbff" stroke="#cddff1"/>
  <text x="916" y="412" class="cardTitle">storage.ts</text>
  <text x="916" y="437" class="body">桥接 localStorage 与后端同步</text>
  <text x="916" y="458" class="body">统一 save/load/fetchAndSync</text>
  <rect x="1108" y="382" width="178" height="82" rx="16" fill="#f8fbff" stroke="#cddff1"/>
  <text x="1130" y="412" class="cardTitle">services/api.ts</text>
  <text x="1130" y="437" class="body">统一封装 /api 请求</text>
  <text x="1130" y="458" class="body">连接前端与 backend/index.js</text>
  <line x1="1072" y1="423" x2="1102" y2="423" stroke="#6b87ab" stroke-width="3" marker-end="url(#arrow)"/>
  <text x="1034" y="413" class="label">同步</text>

  <rect x="1360" y="190" width="500" height="770" rx="26" fill="#ffffff" stroke="#dce8f3" stroke-width="2" filter="url(#shadow)"/>
  <rect x="1360" y="190" width="500" height="56" rx="26" fill="#fff3e8"/>
  <text x="1394" y="226" class="sectionTitle">后端服务与数据层</text>
  <rect x="1394" y="276" width="432" height="238" rx="16" fill="#f8fbff" stroke="#cddff1"/>
  <text x="1418" y="308" class="cardTitle">backend/src/index.js</text>
  <text x="1418" y="337" class="body">- Express 服务主入口</text>
  <text x="1418" y="363" class="body">- experiments / templates / projects / reports CRUD</text>
  <text x="1418" y="389" class="body">- /api/report-templates</text>
  <text x="1418" y="415" class="body">- /api/compute/:moduleId/:algId</text>
  <text x="1418" y="441" class="body">- /api/data/read-chunk</text>
  <text x="1418" y="467" class="body">- /api/ai/generate（预留）</text>
  <rect x="1682" y="294" width="124" height="30" rx="15" fill="url(#orange)"/>
  <text x="1713" y="314" class="white">后端总入口</text>

  <rect x="1394" y="548" width="432" height="190" rx="16" fill="#f8fbff" stroke="#cddff1"/>
  <text x="1418" y="580" class="cardTitle">data/ 本地持久化目录</text>
  <text x="1418" y="610" class="body">- experiments/*.json</text>
  <text x="1418" y="636" class="body">- templates/*.json</text>
  <text x="1418" y="662" class="body">- projects/*.json</text>
  <text x="1418" y="688" class="body">- reports/*.json</text>
  <text x="1608" y="610" class="body">- process_data/*.json</text>
  <text x="1608" y="636" class="body">- Word 模板目录 wordreporttemplate</text>
  <line x1="1610" y1="514" x2="1610" y2="540" stroke="#6b87ab" stroke-width="3" marker-end="url(#arrow)"/>
  <text x="1630" y="532" class="label">JSON 落盘</text>

  <rect x="1394" y="770" width="432" height="150" rx="16" fill="#f8fbff" stroke="#cddff1"/>
  <text x="1418" y="802" class="cardTitle">后端对前端的支撑作用</text>
  <text x="1418" y="832" class="body">- 为首页初始化同步提供数据源</text>
  <text x="1418" y="858" class="body">- 为模板、项目、报告保存提供持久化能力</text>
  <text x="1418" y="884" class="body">- 为后续真实算法服务、AI扩展预留接口</text>

  <rect x="60" y="530" width="1260" height="430" rx="26" fill="#ffffff" stroke="#dce8f3" stroke-width="2" filter="url(#shadow)"/>
  <rect x="60" y="530" width="1260" height="56" rx="26" fill="#eef6ff"/>
  <text x="94" y="566" class="sectionTitle">核心业务页面与页面间流程</text>
  <text x="804" y="566" class="small">统一依赖：useAppStore + storage.ts；由 router + MainLayout + Outlet 进行装载与分发</text>

  <rect x="96" y="616" width="280" height="132" rx="18" fill="#f8fbff" stroke="#cddff1"/>
  <rect x="96" y="616" width="74" height="30" rx="15" fill="url(#blue)"/>
  <text x="124" y="636" class="white">模板设计</text>
  <text x="118" y="672" class="cardTitle">TemplateCreate.tsx</text>
  <text x="118" y="698" class="body">- React Flow 拖拽搭建模板</text>
  <text x="118" y="722" class="body">- 节点双击配置输入/输出参数</text>
  <text x="118" y="746" class="body">- 保存 AnalysisTemplate</text>

  <rect x="420" y="616" width="380" height="198" rx="18" fill="#f8fbff" stroke="#cddff1"/>
  <rect x="420" y="616" width="86" height="30" rx="15" fill="url(#green)"/>
  <text x="450" y="636" class="white">分析执行</text>
  <text x="444" y="672" class="cardTitle">AnalysisExecution.tsx</text>
  <text x="444" y="698" class="body">- 加载 AnalysisProject 绑定的 AnalysisTemplate</text>
  <text x="444" y="722" class="body">- 生成执行顺序并高亮当前节点</text>
  <text x="444" y="746" class="body">- 数据导入 / 对比分析 / 输出变量设置</text>
  <text x="444" y="770" class="body">- 推进 completedNodes 并保存项目进度</text>
  <rect x="680" y="778" width="94" height="24" rx="12" fill="#f0f5ff" stroke="#c9daf7"/>
  <text x="698" y="794" class="mini">调用 FullscreenPanel</text>

  <rect x="844" y="616" width="200" height="132" rx="18" fill="#f8fbff" stroke="#cddff1"/>
  <rect x="844" y="616" width="78" height="30" rx="15" fill="url(#purple)"/>
  <text x="874" y="636" class="white">报告创建</text>
  <text x="866" y="672" class="cardTitle">ReportCreate.tsx</text>
  <text x="866" y="698" class="body">- 选择分析项目与报告模板</text>
  <text x="866" y="722" class="body">- 生成 AnalysisReport</text>
  <text x="866" y="746" class="body">- 跳转报告生成页</text>

  <rect x="1084" y="616" width="200" height="132" rx="18" fill="#f8fbff" stroke="#cddff1"/>
  <rect x="1084" y="616" width="78" height="30" rx="15" fill="url(#pink)"/>
  <text x="1114" y="636" class="white">报告生成</text>
  <text x="1106" y="672" class="cardTitle">ReportGenerate.tsx</text>
  <text x="1106" y="698" class="body">- 标签绑定输出变量</text>
  <text x="1106" y="722" class="body">- 保存 tagBindings</text>
  <text x="1106" y="746" class="body">- 更新报告状态 generated</text>

  <rect x="120" y="804" width="1100" height="112" rx="18" fill="#fbfdff" stroke="#d7e4f1"/>
  <text x="146" y="836" class="cardTitle">页面内部/页面之间的关键调用链</text>
  <text x="146" y="864" class="body">TemplateCreate 保存模板 → storage.saveAnalysisTemplates() → services/api.saveTemplate() → backend /api/templates</text>
  <text x="146" y="890" class="body">AnalysisExecution 完成节点 → updateAnalysisProject() + saveAnalysisProjects() → backend /api/projects</text>
  <text x="146" y="916" class="body">AnalysisExecution 全部完成 → 跳转 ReportCreate → 创建报告 → ReportGenerate 绑定并生成</text>

  <line x1="378" y1="682" x2="412" y2="682" stroke="#6b87ab" stroke-width="3" marker-end="url(#arrow)"/>
  <text x="355" y="668" class="label">模板被加载</text>
  <line x1="802" y1="682" x2="836" y2="682" stroke="#6b87ab" stroke-width="3" marker-end="url(#arrow)"/>
  <text x="812" y="668" class="label">执行完成后</text>
  <line x1="1046" y1="682" x2="1078" y2="682" stroke="#6b87ab" stroke-width="3" marker-end="url(#arrow)"/>
  <text x="1060" y="668" class="label">进入绑定</text>

  <rect x="848" y="780" width="178" height="54" rx="18" fill="#ffffff" stroke="#cadcf3"/>
  <text x="874" y="812" class="cardTitle">FullscreenPanel.tsx</text>
  <text x="874" y="832" class="small">显示 OUT 输出 URL 全屏结果面板</text>
  <line x1="800" y1="792" x2="842" y2="792" stroke="#6b87ab" stroke-width="3" marker-end="url(#arrow)"/>
  <text x="792" y="780" class="label">OUT 点击</text>

  <line x1="420" y1="340" x2="454" y2="340" stroke="#6b87ab" stroke-width="3" marker-end="url(#arrow)"/>
  <text x="425" y="326" class="label">渲染路由</text>
  <line x1="420" y1="410" x2="854" y2="410" stroke="#6b87ab" stroke-width="3" marker-end="url(#arrow)"/>
  <text x="610" y="398" class="label">启动同步 syncAllFromBackend</text>
  <line x1="640" y1="490" x2="640" y2="520" stroke="#6b87ab" stroke-width="3" marker-end="url(#arrow)"/>
  <text x="664" y="512" class="label">Outlet 分发到业务页</text>
  <line x1="1050" y1="490" x2="1050" y2="522" stroke="#6b87ab" stroke-width="3" marker-end="url(#arrow)"/>
  <text x="1068" y="512" class="label">统一读写</text>
  <line x1="1322" y1="410" x2="1354" y2="410" stroke="#6b87ab" stroke-width="3" marker-end="url(#arrow)"/>
  <text x="1264" y="398" class="label">HTTP /api/*</text>
  <path d="M1188 746 C1260 746, 1300 746, 1350 746" fill="none" stroke="#6b87ab" stroke-width="3" marker-end="url(#arrow)"/>
  <text x="1222" y="732" class="label">保存 / 查询 / 生成</text>
  <path d="M740 470 C740 510, 1198 510, 1198 360" fill="none" stroke="#6b87ab" stroke-width="3" marker-end="url(#arrow)"/>
  <text x="846" y="494" class="label">ThemeProvider / ThemeToggle 依赖 useThemeStore</text>

  <rect x="60" y="998" width="1800" height="154" rx="26" fill="#ffffff" stroke="#dce8f3" stroke-width="2" filter="url(#shadow)"/>
  <rect x="60" y="998" width="1800" height="56" rx="26" fill="#f3f8fb"/>
  <text x="94" y="1034" class="sectionTitle">核心业务对象关系</text>
  <text x="708" y="1034" class="small">这 4 个对象串起“试验 → 模板 → 分析项目 → 报告”主链路</text>

  <rect x="108" y="1084" width="280" height="44" rx="16" fill="#eef5ff" stroke="#cadef7"/>
  <text x="164" y="1112" class="cardTitle">ExperimentCard</text>
  <text x="316" y="1112" class="small">试验卡片 / 试验大纲</text>

  <rect x="460" y="1084" width="280" height="44" rx="16" fill="#eefaf1" stroke="#cae8d4"/>
  <text x="514" y="1112" class="cardTitle">AnalysisTemplate</text>
  <text x="688" y="1112" class="small">React Flow 模板</text>

  <rect x="860" y="1084" width="300" height="44" rx="16" fill="#f5f1ff" stroke="#ddcef7"/>
  <text x="920" y="1112" class="cardTitle">AnalysisProject</text>
  <text x="1096" y="1112" class="small">绑定试验与模板并保存执行状态</text>

  <rect x="1280" y="1084" width="300" height="44" rx="16" fill="#fff2f6" stroke="#f4c7d8"/>
  <text x="1348" y="1112" class="cardTitle">AnalysisReport</text>
  <text x="1518" y="1112" class="small">绑定模板标签并生成报告</text>

  <line x1="388" y1="1106" x2="454" y2="1106" stroke="#6b87ab" stroke-width="3" marker-end="url(#arrow)"/>
  <line x1="740" y1="1106" x2="854" y2="1106" stroke="#6b87ab" stroke-width="3" marker-end="url(#arrow)"/>
  <line x1="1160" y1="1106" x2="1274" y2="1106" stroke="#6b87ab" stroke-width="3" marker-end="url(#arrow)"/>
  <text x="772" y="1090" class="label">试验 + 模板 共同形成项目</text>
  <text x="1182" y="1090" class="label">项目结果进入报告流程</text>

  <text x="60" y="1184" class="subtitle">说明：本图基于当前代码中的 App / router / MainLayout / useAppStore / useThemeStore / storage.ts / services/api.ts / TemplateCreate / AnalysisExecution / ReportCreate / ReportGenerate / backend/src/index.js 实际关系整理，可直接用于汇报、设计说明和开发交底。</text>
</svg>
